<svg version="1.1" xmlns="http://www.w3.org/2000/svg" xmlns:xlink="http://www.w3.org/1999/xlink" x="0px" y="0px"
	 width="512px" height="331.51px" viewBox="251 -44.76 512 331.51" enable-background="new 251 -44.76 512 331.51"
	 xml:space="preserve">
<g id="_x31_2_cloud">
	<path fill="#D8ECFE" d="M694.88,137.98c4.24-59.34-50.4-105.09-107.76-91.16c-11.63-52.39-58.36-91.57-114.26-91.57
		c-66.24,0-119.66,55.04-116.94,121.88c-0.04,0-0.07,0-0.11,0C297.93,77.13,251,124.05,251,181.94
		c0,56.53,44.75,102.59,100.75,104.73v0.09h336.71c41.16,0,74.53-33.37,74.53-74.53C763,173.22,733.04,141.23,694.88,137.98z"/>
	<g>
		<g>
			<path fill="#C4E2FF" d="M694.88,137.98c4.24-59.34-50.4-105.09-107.76-91.16c-11.63-52.39-58.36-91.57-114.26-91.57
				c-18.5,0-35.99,4.29-51.54,11.94c3.9-0.39,7.85-0.6,11.86-0.6c55.89,0,102.63,39.18,114.26,91.57
				c57.36-13.92,112,31.82,107.76,91.16c38.16,3.25,68.12,35.24,68.12,74.24c0,26.65-14,50.02-35.03,63.2h0.18
				c41.16,0,74.53-33.37,74.53-74.53C763,173.22,733.04,141.23,694.88,137.98L694.88,137.98z"/>
		</g>
	</g>
</g>
</svg>
