<svg version="1.1" xmlns="http://www.w3.org/2000/svg" xmlns:xlink="http://www.w3.org/1999/xlink" x="0px" y="0px"
	 width="512px" height="512px" viewBox="251 -135 512 512" enable-background="new 251 -135 512 512" xml:space="preserve">
<g>
	<g>
		<ellipse fill="#FFE07D" cx="570.52" cy="57.59" rx="84" ry="84"/>
		<path fill="#FFD064" d="M570.59-26.42c-3.96,0-7.85,0.29-11.66,0.82c40.87,5.68,72.35,40.75,72.35,83.19s-31.47,77.51-72.35,83.19
			c3.81,0.53,7.7,0.82,11.66,0.82c46.4,0,84.01-37.61,84.01-84.01S616.99-26.42,570.59-26.42L570.59-26.42z"/>
		<g>
			<g>
				<path fill="#FFE07D" d="M570.57-52.41c-4.2,0-7.61-3.41-7.61-7.61v-67.21c0-4.2,3.4-7.61,7.61-7.61s7.61,3.41,7.61,7.61v67.21
					C578.18-55.82,574.77-52.41,570.57-52.41z"/>
			</g>
			<g>
				<path fill="#FFE07D" d="M755.39,65.2h-67.21c-4.2,0-7.61-3.41-7.61-7.61s3.4-7.61,7.61-7.61h67.21c4.2,0,7.61,3.41,7.61,7.61
					C763,61.8,759.6,65.2,755.39,65.2L755.39,65.2z"/>
			</g>
			<g>
				<path fill="#FFE07D" d="M452.95,65.2h-67.21c-4.2,0-7.61-3.41-7.61-7.61s3.4-7.61,7.61-7.61h67.21c4.2,0,7.61,3.41,7.61,7.61
					C460.56,61.8,457.16,65.2,452.95,65.2L452.95,65.2z"/>
			</g>
			<g>
				<path fill="#FFE07D" d="M653.74-17.96c-1.95,0-3.89-0.74-5.38-2.23c-2.97-2.97-2.97-7.79,0-10.76l47.52-47.52
					c2.97-2.97,7.79-2.97,10.76,0c2.97,2.97,2.97,7.79,0,10.76l-47.52,47.52C657.63-18.71,655.68-17.96,653.74-17.96z"/>
			</g>
			<g>
				<path fill="#FFE07D" d="M701.26,195.89c-1.95,0-3.89-0.74-5.38-2.23l-47.52-47.52c-2.97-2.97-2.97-7.79,0-10.76
					c2.97-2.97,7.79-2.97,10.76,0l47.52,47.52c2.97,2.97,2.97,7.79,0,10.76C705.15,195.15,703.21,195.89,701.26,195.89
					L701.26,195.89z"/>
			</g>
			<g>
				<path fill="#FFE07D" d="M487.4-17.96c-1.95,0-3.89-0.74-5.38-2.23L434.5-67.72c-2.97-2.97-2.97-7.79,0-10.76
					c2.97-2.97,7.79-2.97,10.76,0l47.52,47.52c2.97,2.97,2.97,7.79,0,10.76C491.3-18.71,489.35-17.96,487.4-17.96z"/>
			</g>
		</g>
		<g>
			<g>
				<path fill="#FFF0AF" d="M525.56-43.46c-2.99,0-5.82-1.77-7.03-4.7L505.67-79.2c-1.61-3.88,0.23-8.33,4.12-9.94
					c3.88-1.61,8.33,0.24,9.94,4.12l12.86,31.05c1.61,3.88-0.23,8.33-4.12,9.94C527.52-43.64,526.53-43.46,525.56-43.46
					L525.56-43.46z"/>
			</g>
			<g>
				<path fill="#FFF0AF" d="M461.91,20.19c-0.97,0-1.96-0.19-2.91-0.58L427.95,6.75c-3.88-1.61-5.72-6.06-4.12-9.94
					c1.61-3.88,6.06-5.72,9.94-4.12l31.05,12.86c3.88,1.61,5.72,6.06,4.12,9.94C467.72,18.43,464.89,20.19,461.91,20.19
					L461.91,20.19z"/>
			</g>
			<g>
				<path fill="#FFF0AF" d="M710.27,123.07c-0.97,0-1.96-0.19-2.91-0.58l-31.05-12.86c-3.88-1.61-5.72-6.06-4.12-9.94
					s6.06-5.72,9.94-4.12l31.05,12.86c3.88,1.61,5.72,6.06,4.12,9.94C716.09,121.3,713.26,123.07,710.27,123.07L710.27,123.07z"/>
			</g>
			<g>
				<path fill="#FFF0AF" d="M679.23,20.19c-2.99,0-5.82-1.77-7.03-4.7c-1.61-3.88,0.23-8.33,4.12-9.94L707.37-7.3
					c3.88-1.61,8.33,0.24,9.94,4.12c1.61,3.88-0.23,8.33-4.12,9.94l-31.05,12.86C681.19,20.01,680.2,20.19,679.23,20.19
					L679.23,20.19z"/>
			</g>
			<g>
				<path fill="#FFF0AF" d="M615.58-43.46c-0.97,0-1.96-0.19-2.91-0.58c-3.88-1.61-5.73-6.06-4.12-9.94l12.86-31.05
					c1.61-3.88,6.06-5.72,9.94-4.12c3.88,1.61,5.72,6.06,4.12,9.94l-12.86,31.04C621.39-45.23,618.56-43.46,615.58-43.46
					L615.58-43.46z"/>
			</g>
		</g>
	</g>
	<g>
		<path fill="#ECF4FF" d="M687.86,242.42h-0.02c-1.24,0-2.3-0.83-2.65-2.02c-8.14-27.96-33.95-48.38-64.54-48.38
			c-11.44,0-22.2,2.86-31.62,7.91c-3.69,1.98-8.28,0.94-10.63-2.53c-9.06-13.38-24.38-22.18-41.76-22.18
			c-4.06,0-8.02,0.48-11.8,1.39c-4.1,0.99-8.33-1.22-9.66-5.22C503.01,134.57,468.32,108,427.42,108
			c-51.04,0-92.41,41.37-92.41,92.41c0,1.16,0.03,2.31,0.08,3.46c0.05,1.14-0.32,2.25-1.02,3.14l-0.07,0.09
			c-0.88,1.12-2.2,1.78-3.62,1.86c-44.72,2.44-80.13,39.82-79.36,85.32c0.78,46,39.05,82.55,85.05,82.55h350.79
			c36.94,0,67.73-29.38,68.21-66.32C755.54,272.99,725.27,242.42,687.86,242.42L687.86,242.42z"/>
		<path fill="#DAEAFF" d="M687.86,242.42h-0.02c-1.24,0-2.3-0.83-2.65-2.02c-8.14-27.96-33.95-48.38-64.54-48.38
			c-3.98,0-7.87,0.35-11.66,1.02c25.33,4.44,45.78,23.05,52.86,47.37c0.35,1.19,1.41,2.02,2.65,2.02h0.02
			c37.41,0,67.69,30.57,67.2,68.1c-0.48,36.93-31.27,66.32-68.21,66.32h23.33c36.94,0,67.73-29.38,68.21-66.32
			C755.54,272.99,725.27,242.42,687.86,242.42L687.86,242.42z"/>
		<path fill="#DDEAFB" d="M411.41,292.83c0,4.2,3.41,7.61,7.61,7.61c4.2,0,7.61-3.4,7.61-7.61c0-52.02-40.36-94.79-91.4-98.64
			c-0.14,2.06-0.21,4.14-0.21,6.23c0,1.16,0.03,2.31,0.08,3.46c0.05,1.14-0.32,2.25-1.02,3.14l-0.07,0.09
			c-0.88,1.12-2.2,1.78-3.62,1.86c-0.67,0.04-1.34,0.11-2.01,0.16C374.22,209.48,411.41,246.89,411.41,292.83L411.41,292.83z"/>
		<g>
			<path fill="#DDEAFB" d="M524,176.76c-3.83,0.52-7.59-1.64-8.82-5.38c-0.76-2.31-1.62-4.58-2.55-6.8
				c-28.09,9.92-48.28,36.73-48.28,68.18c0,4.2,3.41,7.61,7.61,7.61c4.2,0,7.61-3.4,7.61-7.61c0-27.13,19.03-50.12,44.44-55.96
				L524,176.76L524,176.76z"/>
		</g>
		<path fill="#DDEAFB" d="M628.25,313.43c0-4.2-3.41-7.61-7.61-7.61c-4.2,0-7.61,3.4-7.61,7.61c0,26,12.7,49.09,32.21,63.41h41.61
			c0.81,0,1.62-0.03,2.43-0.06C655.42,375.52,628.25,347.59,628.25,313.43z"/>
	</g>
</g>
</svg>
